<svg xmlns="http://www.w3.org/2000/svg" xmlns:xlink="http://www.w3.org/1999/xlink" version="1.1" x="0px" y="0px" viewBox="0 0 32 40" enable-background="new 0 0 32 32" xml:space="preserve"><path d="M27,7H5c-1.6542969,0-3,1.3457031-3,3v12c0,1.6542969,1.3457031,3,3,3h22c1.6542969,0,3-1.3457031,3-3V10  C30,8.3457031,28.6542969,7,27,7z M4,10c0-0.5517578,0.4482422-1,1-1h22c0.5517578,0,1,0.4482422,1,1v3H4V10z M28,22  c0,0.5517578-0.4482422,1-1,1H5c-0.5517578,0-1-0.4482422-1-1v-7h24V22z M15,20c0-0.5527344,0.4472656-1,1-1h3  c0.5527344,0,1,0.4472656,1,1s-0.4472656,1-1,1h-3C15.4472656,21,15,20.5527344,15,20z M21,20c0-0.5527344,0.4472656-1,1-1h3  c0.5527344,0,1,0.4472656,1,1s-0.4472656,1-1,1h-3C21.4472656,21,21,20.5527344,21,20z"/><text x="0" y="47" fill="#000000" font-size="5px" font-weight="bold" font-family="'Helvetica Neue', Helvetica, Arial-Unicode, Arial, Sans-serif">Created by maria icon</text><text x="0" y="52" fill="#000000" font-size="5px" font-weight="bold" font-family="'Helvetica Neue', Helvetica, Arial-Unicode, Arial, Sans-serif">from the Noun Project</text></svg>