<svg xmlns="http://www.w3.org/2000/svg" xmlns:xlink="http://www.w3.org/1999/xlink" version="1.1" x="0px" y="0px" viewBox="0 0 32 40" enable-background="new 0 0 32 32" xml:space="preserve"><path d="M2,22c0,1.6542969,1.3457031,3,3,3h22c1.6542969,0,3-1.3457031,3-3v-7H2V22z M24,20h3c0.5527344,0,1,0.4472656,1,1  s-0.4472656,1-1,1h-3c-0.5527344,0-1-0.4472656-1-1S23.4472656,20,24,20z M18,20h3c0.5527344,0,1,0.4472656,1,1s-0.4472656,1-1,1h-3  c-0.5527344,0-1-0.4472656-1-1S17.4472656,20,18,20z M30,10v3H2v-3c0-1.6542969,1.3457031-3,3-3h22C28.6542969,7,30,8.3457031,30,10  z"/><text x="0" y="47" fill="#000000" font-size="5px" font-weight="bold" font-family="'Helvetica Neue', Helvetica, Arial-Unicode, Arial, Sans-serif">Created by maria icon</text><text x="0" y="52" fill="#000000" font-size="5px" font-weight="bold" font-family="'Helvetica Neue', Helvetica, Arial-Unicode, Arial, Sans-serif">from the Noun Project</text></svg>