<svg xmlns="http://www.w3.org/2000/svg" xmlns:xlink="http://www.w3.org/1999/xlink" xmlns:serif="http://www.serif.com/" viewBox="0 0 48 60" version="1.1" xml:space="preserve" style="" x="0px" y="0px" fill-rule="evenodd" clip-rule="evenodd" stroke-linejoin="round" stroke-miterlimit="2"><g transform="matrix(1,0,0,1,-144,-240)"><g><path d="M160,287C161.657,287 163,285.657 163,284L163,272C163,271.448 163.448,271 164,271C164,271 172,271 172,271C172.552,271 173,271.448 173,272C173,272 173,284 173,284C173,285.657 174.343,287 176,287L186,287C188.761,287 191,284.761 191,282C191,282 191,260 191,260C191,258.457 190.288,257.001 189.07,256.053C189.07,256.053 171.07,242.053 171.07,242.053C169.264,240.649 166.736,240.649 164.93,242.053C164.93,242.053 146.93,256.053 146.93,256.053C145.712,257.001 145,258.457 145,260L145,282C145,284.761 147.239,287 150,287L160,287ZM160,285L150,285C148.343,285 147,283.657 147,282C147,282 147,260 147,260C147,259.074 147.427,258.2 148.158,257.632C148.158,257.632 166.158,243.632 166.158,243.632C167.242,242.789 168.758,242.789 169.842,243.632C169.842,243.632 187.842,257.632 187.842,257.632C188.573,258.2 189,259.074 189,260C189,260 189,282 189,282C189,283.657 187.657,285 186,285C186,285 176,285 176,285C175.448,285 175,284.552 175,284C175,284 175,272 175,272C175,270.343 173.657,269 172,269L164,269C162.343,269 161,270.343 161,272L161,284C161,284.552 160.552,285 160,285Z"/></g></g><text x="0" y="63" fill="#000000" font-size="5px" font-weight="bold" font-family="'Helvetica Neue', Helvetica, Arial-Unicode, Arial, Sans-serif">Created by Mada Creative</text><text x="0" y="68" fill="#000000" font-size="5px" font-weight="bold" font-family="'Helvetica Neue', Helvetica, Arial-Unicode, Arial, Sans-serif">from the Noun Project</text></svg>