<svg xmlns="http://www.w3.org/2000/svg" xmlns:xlink="http://www.w3.org/1999/xlink" xmlns:serif="http://www.serif.com/" viewBox="0 0 48 60" version="1.1" xml:space="preserve" style="" x="0px" y="0px" fill-rule="evenodd" clip-rule="evenodd" stroke-linejoin="round" stroke-miterlimit="2"><g transform="matrix(1,0,0,1,-48,-144)"><g><path d="M66,189L54,189C52.343,189 51,187.657 51,186C51,186 51,164 51,164C51,163.074 51.427,162.2 52.158,161.632C52.158,161.632 70.158,147.632 70.158,147.632C71.242,146.789 72.758,146.789 73.842,147.632C73.842,147.632 91.842,161.632 91.842,161.632C92.573,162.2 93,163.074 93,164L93,186C93,187.657 91.657,189 90,189C90,189 78,189 78,189C77.735,189 77.48,188.895 77.293,188.707C77.105,188.52 77,188.265 77,188C77,188 77,175.502 77,172C77,171.448 76.552,171 76,171C73.423,171 70.577,171 68,171C67.448,171 67,171.448 67,172C67,175.502 67,188 67,188C67,188.265 66.895,188.52 66.707,188.707C66.52,188.895 66.265,189 66,189Z"/></g></g><text x="0" y="63" fill="#000000" font-size="5px" font-weight="bold" font-family="'Helvetica Neue', Helvetica, Arial-Unicode, Arial, Sans-serif">Created by Mada Creative</text><text x="0" y="68" fill="#000000" font-size="5px" font-weight="bold" font-family="'Helvetica Neue', Helvetica, Arial-Unicode, Arial, Sans-serif">from the Noun Project</text></svg>