<svg xmlns="http://www.w3.org/2000/svg" xmlns:xlink="http://www.w3.org/1999/xlink" version="1.1" x="0px" y="0px" viewBox="0 0 50 62.5" enable-background="new 0 0 50 50" xml:space="preserve"><g><path d="M30.65897,31.69c0-4.28003,3.48004-7.77002,7.76001-7.77002h7.51001v-7.21002c0-0.58997-0.46997-1.06995-1.07001-1.06995   H6.34897c-2.95001,0-5.34998,2.39996-5.34998,5.34998v21.40002c0,2.94995,2.39996,5.34998,5.34998,5.34998h38.51001   c0.60004,0,1.07001-0.47998,1.07001-1.07001v-7.21002h-7.51001c-2.07001,0-4.02002-0.79999-5.48999-2.27997   C31.45901,35.70996,30.65897,33.76995,30.65897,31.69z"/><path d="M38.42111,26.06409c-3.11298,0-5.62689,2.51398-5.62689,5.62689c0,1.55121,0.6311,2.96325,1.6474,3.97955   c1.0163,1.01624,2.41766,1.6474,3.97949,1.6474h9.51013c0.59906,0,1.06976-0.48138,1.06976-1.06976v-9.11432   c0-0.59906-0.4707-1.06976-1.06976-1.06976H38.42111z M38.82761,34.90026c-1.77576,0-3.20929-1.44415-3.20929-3.20929   c0-1.77576,1.43353-3.20923,3.20929-3.20923c1.77582,0,3.20929,1.43347,3.20929,3.20923   C42.0369,33.45611,40.60342,34.90026,38.82761,34.90026z"/><path d="M25.22897,13.64001c0.04999-0.39001,0.08002-0.80005,0.08002-1.21002c0-5.60004-4.56-10.16998-10.16998-10.16998   c-5.60004,0-10.16003,4.56995-10.16003,10.16998c0,0.45001,0.03003,0.89996,0.09003,1.33002   c0.40997-0.08002,0.83997-0.12,1.27997-0.12h0.38c-0.06-0.40002-0.08997-0.80005-0.08997-1.21002c0-4.69,3.81-8.51001,8.5-8.51001   s8.50995,3.82001,8.50995,8.51001c0,0.40997-0.02997,0.81-0.08997,1.21002H25.22897z"/><path d="M15.13901,5.98999c-3.55005,0-6.42999,2.89001-6.42999,6.44c0,0.40997,0.03998,0.81,0.10999,1.21002   c0,0.00995,0.01001,0.02997,0.01001,0.03998h12.63c0-0.01001,0.00995-0.03003,0.00995-0.03998   c0.07001-0.40002,0.11005-0.80005,0.11005-1.21002C21.57901,8.88,18.689,5.98999,15.13901,5.98999z"/><path d="M39.74899,7.67999l-1.88,0.60998C37.72897,8.32995,37.64896,8.48999,37.69901,8.63l1.73999,5.01001h2.64001l-2-5.79004   C40.02896,7.70996,39.879,7.64001,39.74899,7.67999z"/><path d="M37.17899,13.64001L34.259,5.23999C34.20901,5.09997,34.05899,5.02997,33.92899,5.07L26.689,7.41998   c-0.15002,0.03998-0.22003,0.20001-0.16003,0.34998c0.59003,1.43005,0.92004,3,0.92004,4.66003   c0,0.39996-0.02002,0.81-0.06,1.21002H37.17899z"/></g><text x="0" y="65" fill="#000000" font-size="5px" font-weight="bold" font-family="'Helvetica Neue', Helvetica, Arial-Unicode, Arial, Sans-serif">Created by Vectors Point</text><text x="0" y="70" fill="#000000" font-size="5px" font-weight="bold" font-family="'Helvetica Neue', Helvetica, Arial-Unicode, Arial, Sans-serif">from the Noun Project</text></svg>